<svg xmlns="http://www.w3.org/2000/svg" viewBox="0 0 192 192" fill="none">
  <!-- 192x192 app icon -->

  <!-- Background circle - dark -->
  <circle cx="96" cy="96" r="92" fill="#111827"/>

  <!-- Location Pin - centered -->
  <g transform="translate(48, 20)">
    <!-- Pin shape - yellow -->
    <path d="M48 8C28.12 8 12 24.12 12 44c0 28 31.2 60 34.56 63.36a2 2 0 0 0 2.88 0C52.8 104 84 72 84 44 84 24.12 67.88 8 48 8z" fill="#FACC15"/>

    <!-- Torii gate motif - dark on yellow -->
    <g fill="#111827">
      <!-- Torii top beam (kasagi) -->
      <rect x="26" y="24" width="44" height="5.5" rx="1.5"/>
      <!-- Torii secondary beam (nuki) -->
      <rect x="29" y="33" width="38" height="4" rx="1"/>
      <!-- Left pillar -->
      <rect x="32" y="24" width="5" height="40" rx="1"/>
      <!-- Right pillar -->
      <rect x="59" y="24" width="5" height="40" rx="1"/>
      <!-- Pillar bases -->
      <rect x="29.5" y="62" width="10" height="3.5" rx="0.8"/>
      <rect x="56.5" y="62" width="10" height="3.5" rx="0.8"/>
    </g>
  </g>

  <!-- Subtle text below pin -->
  <text x="96" y="158" font-family="Inter, system-ui, -apple-system, sans-serif" font-size="16" font-weight="600" fill="#FACC15" text-anchor="middle" letter-spacing="2">ASIAN.DIRECTORY</text>
</svg>
